# xmcd
#
# Track frame offsets:
#	150
#	14810
#	29601
#	45372
#	60184
#	75096
#	90190
#	105438
#	120198
#	135085
#
# Disc length: 1996 seconds
#
# Revision: 0
# Processed by: cddbd v1.5.2PL0 Copyright (c) Steve Scherf et al.
# Submitted via: EasyCDDAExtractor 16.0.6.1
#
DISCID=5b07ca0a
DTITLE=Συλλογικός δίσκος - Ιστορία ρεμπέτικου και λαϊκού 06-4
DYEAR=2007
DGENRE=Ποικίλη
TTITLE0=Μπέλλου Σωτηρία-Περπινιάδης Στελλάκης - Κάνε κουράγιο καρδιά μου [Γ. Π
TTITLE0=απαϊωάννου]
TTITLE1=Μοσχονάς Οδυσσέας-Ευγενικός Αθανάσιος - Καλή καρδιά [Γ. Παπαϊωάννου]
TTITLE2=Νίνου Μαρίκα-Ευγενικός Αθανάσιος - Η μικρή του καμηλιέρη [Απ. Χατζηχρή
TTITLE2=στος]
TTITLE3=Μοσχονάς Οδυσσέας - Έρως [Γ. Παπαϊωάννου]
TTITLE4=Γεωργακοπούλου Ιωάννα-Τατασσόπουλος Γιάννης - Η πρωτομάγκισσα [μουσ. Ε
TTITLE4=λένη Νικολαΐδου]
TTITLE5=Νίνου Μαρίκα-Κηρομύτης Στέλιος-Τσιτσάνης Β. - Απόψε μέσ' στο καπηλειό 
TTITLE5=[Β. Τσιτσάνης-Κ. Μάνεσης]
TTITLE6=Τσαουσάκης Πρ.-Νίνου Μαρίκα-Τσοιτσάνης Β. - Βίρα την άγκυρα παιδιά [Β.
TTITLE6=Τσιτσάνης]
TTITLE7=Μπέλλου Σωτηρία-Περπινιάδης Στελλάκης - Άνοιξε γιατί δεν αντέχω [Γ. Πα
TTITLE7=παϊωάννου]
TTITLE8=Νίνου Μαρίκα-Τσαουσάκης Πρ.-Τσιτσάνης Β. - Για τα μάτια π' αγαπώ [Β. Τ
TTITLE8=σιτσάνης]
TTITLE9=Νίνου Μαρίκα-Τσαουσάκης Πρόδρομος - Τρικαλινή παλιά μ' αγάπη [Β. Τσιτσ
TTITLE9=άνης]
EXTD=
EXTT0=
EXTT1=
EXTT2=
EXTT3=
EXTT4=
EXTT5=
EXTT6=
EXTT7=
EXTT8=
EXTT9=
PLAYORDER=
